<svg xmlns="http://www.w3.org/2000/svg" viewBox="0 0 64 64">
  <rect width="64" height="64" rx="12" fill="#0d1117"/>
  <rect x="2" y="2" width="60" height="60" rx="10" fill="none" stroke="#58a6ff" stroke-width="1.5" opacity="0.4"/>
  <!-- K -->
  <path d="M10 16 L10 48 M10 32 L26 16 M10 32 L26 48" stroke="#58a6ff" stroke-width="4" stroke-linecap="round" stroke-linejoin="round" fill="none"/>
  <!-- S -->
  <path d="M36 18 Q36 16 40 16 L52 16 Q56 16 56 20 Q56 24 52 26 L40 26 Q36 26 36 30 Q36 34 40 34 L52 34 Q56 34 56 38 Q56 42 52 44 L40 48 Q36 48 36 46" stroke="#ffffff" stroke-width="4" stroke-linecap="round" stroke-linejoin="round" fill="none"/>
</svg>
